<?xml version="1.0" encoding="UTF-8"?>
<mxfile host="app.diagrams.net" modified="2021-05-13T08:48:02.977Z" agent="5.0 (Windows NT 10.0; Win64; x64) AppleWebKit/537.36 (KHTML, like Gecko) Chrome/86.0.4240.272 Whale/2.9.117.22 Safari/537.36" etag="iXZ3R6OyPWpLuMXi701Y" version="14.6.12" type="google">
  <diagram id="kgpKYQtTHZ0yAKxKKP6v" name="Page-1">
    <mxGraphModel dx="2272" dy="794" grid="1" gridSize="10" guides="1" tooltips="1" connect="1" arrows="1" fold="1" page="1" pageScale="1" pageWidth="850" pageHeight="1100" math="0" shadow="0">
      <root>
        <mxCell id="0" />
        <mxCell id="1" parent="0" />
        <mxCell id="Hd1OmZ3TNypDLvuOAxdT-1" value="" style="shape=callout;whiteSpace=wrap;html=1;perimeter=calloutPerimeter;rotation=-180;" parent="1" vertex="1">
          <mxGeometry x="270" y="430" width="730" height="390" as="geometry" />
        </mxCell>
        <mxCell id="Hd1OmZ3TNypDLvuOAxdT-4" value="Archiver" style="shape=umlLifeline;perimeter=lifelinePerimeter;container=1;collapsible=0;recursiveResize=0;rounded=0;shadow=0;strokeWidth=1;" parent="1" vertex="1">
          <mxGeometry x="517" y="460" width="100" height="360" as="geometry" />
        </mxCell>
        <mxCell id="Hd1OmZ3TNypDLvuOAxdT-6" value="" style="points=[];perimeter=orthogonalPerimeter;rounded=0;shadow=0;strokeWidth=1;" parent="Hd1OmZ3TNypDLvuOAxdT-4" vertex="1">
          <mxGeometry x="45" y="140" width="10" height="120" as="geometry" />
        </mxCell>
        <mxCell id="nngdtsK9FfbLxZb6S9HF-3" value="Controller" style="shape=umlLifeline;perimeter=lifelinePerimeter;container=1;collapsible=0;recursiveResize=0;rounded=0;shadow=0;strokeWidth=1;" parent="1" vertex="1">
          <mxGeometry x="300" y="80" width="100" height="380" as="geometry" />
        </mxCell>
        <mxCell id="nngdtsK9FfbLxZb6S9HF-4" value="" style="points=[];perimeter=orthogonalPerimeter;rounded=0;shadow=0;strokeWidth=1;" parent="nngdtsK9FfbLxZb6S9HF-3" vertex="1">
          <mxGeometry x="45" y="70" width="10" height="220" as="geometry" />
        </mxCell>
        <mxCell id="nngdtsK9FfbLxZb6S9HF-5" value="post(IssueRequest: string)" style="verticalAlign=bottom;endArrow=block;shadow=0;strokeWidth=1;exitX=1.043;exitY=0.004;exitDx=0;exitDy=0;exitPerimeter=0;" parent="1" edge="1">
          <mxGeometry relative="1" as="geometry">
            <mxPoint x="10.429999999999836" y="163.96000000000004" as="sourcePoint" />
            <Array as="points" />
            <mxPoint x="345" y="163.96000000000004" as="targetPoint" />
          </mxGeometry>
        </mxCell>
        <mxCell id="nngdtsK9FfbLxZb6S9HF-6" value="Archiver" style="shape=umlLifeline;perimeter=lifelinePerimeter;container=1;collapsible=0;recursiveResize=0;rounded=0;shadow=0;strokeWidth=1;" parent="1" vertex="1">
          <mxGeometry x="520" y="80" width="100" height="380" as="geometry" />
        </mxCell>
        <mxCell id="nngdtsK9FfbLxZb6S9HF-7" value="" style="points=[];perimeter=orthogonalPerimeter;rounded=0;shadow=0;strokeWidth=1;" parent="nngdtsK9FfbLxZb6S9HF-6" vertex="1">
          <mxGeometry x="45" y="150" width="10" height="40" as="geometry" />
        </mxCell>
        <mxCell id="vH8dHonC1HAW-z_F6h0X-3" value="Â save(issueData)" style="verticalAlign=bottom;endArrow=block;shadow=0;strokeWidth=1;entryX=-0.04;entryY=0.006;entryDx=0;entryDy=0;entryPerimeter=0;exitX=1;exitY=0.222;exitDx=0;exitDy=0;exitPerimeter=0;" parent="nngdtsK9FfbLxZb6S9HF-6" edge="1">
          <mxGeometry relative="1" as="geometry">
            <mxPoint x="195" y="236.98000000000002" as="sourcePoint" />
            <mxPoint x="324.9999999999999" y="237" as="targetPoint" />
            <Array as="points" />
          </mxGeometry>
        </mxCell>
        <mxCell id="nngdtsK9FfbLxZb6S9HF-8" value="Database&#xa;Connection" style="shape=umlLifeline;perimeter=lifelinePerimeter;container=1;collapsible=0;recursiveResize=0;rounded=0;shadow=0;strokeWidth=1;" parent="1" vertex="1">
          <mxGeometry x="800" y="80" width="100" height="380" as="geometry" />
        </mxCell>
        <mxCell id="nngdtsK9FfbLxZb6S9HF-9" value="" style="points=[];perimeter=orthogonalPerimeter;rounded=0;shadow=0;strokeWidth=1;" parent="nngdtsK9FfbLxZb6S9HF-8" vertex="1">
          <mxGeometry x="45" y="230" width="10" height="60" as="geometry" />
        </mxCell>
        <mxCell id="nngdtsK9FfbLxZb6S9HF-11" value="issueData := &#xa;generateIssue(issueRequest)" style="verticalAlign=bottom;endArrow=block;shadow=0;strokeWidth=1;" parent="1" target="nngdtsK9FfbLxZb6S9HF-7" edge="1">
          <mxGeometry relative="1" as="geometry">
            <mxPoint x="355" y="231" as="sourcePoint" />
            <mxPoint x="510" y="231" as="targetPoint" />
            <Array as="points" />
          </mxGeometry>
        </mxCell>
        <mxCell id="nngdtsK9FfbLxZb6S9HF-12" value="Database" style="shape=umlActor;verticalLabelPosition=bottom;verticalAlign=top;html=1;outlineConnect=0;" parent="1" vertex="1">
          <mxGeometry x="950" y="40" width="30" height="60" as="geometry" />
        </mxCell>
        <mxCell id="nngdtsK9FfbLxZb6S9HF-14" value="" style="endArrow=none;dashed=1;html=1;startArrow=none;" parent="1" edge="1">
          <mxGeometry width="50" height="50" relative="1" as="geometry">
            <mxPoint x="965" y="500" as="sourcePoint" />
            <mxPoint x="964.8000000000002" y="120" as="targetPoint" />
          </mxGeometry>
        </mxCell>
        <mxCell id="nngdtsK9FfbLxZb6S9HF-19" value="Save&#xa;issueData" style="verticalAlign=bottom;endArrow=block;shadow=0;strokeWidth=1;exitX=1.027;exitY=0.324;exitDx=0;exitDy=0;exitPerimeter=0;" parent="1" edge="1">
          <mxGeometry relative="1" as="geometry">
            <mxPoint x="855.27" y="324.68000000000006" as="sourcePoint" />
            <mxPoint x="960" y="324.68000000000006" as="targetPoint" />
            <Array as="points" />
          </mxGeometry>
        </mxCell>
        <mxCell id="nngdtsK9FfbLxZb6S9HF-20" value="" style="points=[];perimeter=orthogonalPerimeter;rounded=0;shadow=0;strokeWidth=1;" parent="1" vertex="1">
          <mxGeometry x="960" y="320" width="10" height="40" as="geometry" />
        </mxCell>
        <mxCell id="nngdtsK9FfbLxZb6S9HF-23" value="return&#xa;saveResult" style="verticalAlign=bottom;endArrow=open;dashed=1;endSize=8;exitX=-0.08;exitY=0.996;shadow=0;strokeWidth=1;exitDx=0;exitDy=0;exitPerimeter=0;" parent="1" source="nngdtsK9FfbLxZb6S9HF-4" edge="1">
          <mxGeometry relative="1" as="geometry">
            <mxPoint x="175" y="369.3599999999999" as="targetPoint" />
            <mxPoint x="344.7399999999998" y="360.05999999999995" as="sourcePoint" />
          </mxGeometry>
        </mxCell>
        <mxCell id="nngdtsK9FfbLxZb6S9HF-26" value="return&#xa;result" style="verticalAlign=bottom;endArrow=open;dashed=1;endSize=8;exitX=-0.026;exitY=1.002;shadow=0;strokeWidth=1;exitDx=0;exitDy=0;exitPerimeter=0;" parent="1" edge="1">
          <mxGeometry relative="1" as="geometry">
            <mxPoint x="855" y="355" as="targetPoint" />
            <mxPoint x="959.7400000000002" y="355.06000000000006" as="sourcePoint" />
          </mxGeometry>
        </mxCell>
        <mxCell id="nngdtsK9FfbLxZb6S9HF-27" value="return&#xa;issueData" style="verticalAlign=bottom;endArrow=open;dashed=1;endSize=8;exitX=-0.257;exitY=1;shadow=0;strokeWidth=1;exitDx=0;exitDy=0;exitPerimeter=0;" parent="1" source="nngdtsK9FfbLxZb6S9HF-7" target="nngdtsK9FfbLxZb6S9HF-4" edge="1">
          <mxGeometry relative="1" as="geometry">
            <mxPoint x="410" y="270" as="targetPoint" />
            <mxPoint x="514.7400000000002" y="270.06000000000006" as="sourcePoint" />
          </mxGeometry>
        </mxCell>
        <mxCell id="nngdtsK9FfbLxZb6S9HF-28" value="saveResult := save(issueData)" style="verticalAlign=bottom;endArrow=block;shadow=0;strokeWidth=1;entryX=-0.04;entryY=0.006;entryDx=0;entryDy=0;entryPerimeter=0;" parent="1" edge="1">
          <mxGeometry relative="1" as="geometry">
            <mxPoint x="355" y="310.7" as="sourcePoint" />
            <mxPoint x="704.5999999999999" y="310.00000000000006" as="targetPoint" />
            <Array as="points" />
          </mxGeometry>
        </mxCell>
        <mxCell id="nngdtsK9FfbLxZb6S9HF-29" value="return result" style="verticalAlign=bottom;endArrow=open;dashed=1;endSize=8;shadow=0;strokeWidth=1;entryX=0.54;entryY=0.667;entryDx=0;entryDy=0;entryPerimeter=0;" parent="1" edge="1">
          <mxGeometry relative="1" as="geometry">
            <mxPoint x="714" y="363.1400000000001" as="targetPoint" />
            <mxPoint x="845" y="363" as="sourcePoint" />
            <Array as="points">
              <mxPoint x="790" y="363" />
            </Array>
          </mxGeometry>
        </mxCell>
        <mxCell id="Hd1OmZ3TNypDLvuOAxdT-2" value="Controller" style="shape=umlLifeline;perimeter=lifelinePerimeter;container=1;collapsible=0;recursiveResize=0;rounded=0;shadow=0;strokeWidth=1;" parent="1" vertex="1">
          <mxGeometry x="305" y="460" width="100" height="360" as="geometry" />
        </mxCell>
        <mxCell id="Hd1OmZ3TNypDLvuOAxdT-3" value="" style="points=[];perimeter=orthogonalPerimeter;rounded=0;shadow=0;strokeWidth=1;" parent="Hd1OmZ3TNypDLvuOAxdT-2" vertex="1">
          <mxGeometry x="45" y="90" width="10" height="190" as="geometry" />
        </mxCell>
        <mxCell id="Hd1OmZ3TNypDLvuOAxdT-7" value="Database&#xa;Connection" style="shape=umlLifeline;perimeter=lifelinePerimeter;container=1;collapsible=0;recursiveResize=0;rounded=0;shadow=0;strokeWidth=1;" parent="1" vertex="1">
          <mxGeometry x="781" y="460" width="100" height="360" as="geometry" />
        </mxCell>
        <mxCell id="Hd1OmZ3TNypDLvuOAxdT-8" value="" style="points=[];perimeter=orthogonalPerimeter;rounded=0;shadow=0;strokeWidth=1;" parent="Hd1OmZ3TNypDLvuOAxdT-7" vertex="1">
          <mxGeometry x="45" y="160" width="10" height="80" as="geometry" />
        </mxCell>
        <mxCell id="Hd1OmZ3TNypDLvuOAxdT-9" value="Database" style="shape=umlActor;verticalLabelPosition=bottom;verticalAlign=top;html=1;outlineConnect=0;" parent="1" vertex="1">
          <mxGeometry x="950" y="460" width="30" height="60" as="geometry" />
        </mxCell>
        <mxCell id="Hd1OmZ3TNypDLvuOAxdT-10" value="" style="endArrow=none;dashed=1;html=1;startArrow=none;" parent="1" source="Hd1OmZ3TNypDLvuOAxdT-12" edge="1">
          <mxGeometry width="50" height="50" relative="1" as="geometry">
            <mxPoint x="965" y="820" as="sourcePoint" />
            <mxPoint x="964.8000000000002" y="540" as="targetPoint" />
          </mxGeometry>
        </mxCell>
        <mxCell id="Hd1OmZ3TNypDLvuOAxdT-12" value="" style="points=[];perimeter=orthogonalPerimeter;rounded=0;shadow=0;strokeWidth=1;" parent="1" vertex="1">
          <mxGeometry x="960" y="630" width="10" height="60" as="geometry" />
        </mxCell>
        <mxCell id="Hd1OmZ3TNypDLvuOAxdT-13" value="" style="endArrow=none;dashed=1;html=1;startArrow=none;" parent="1" target="Hd1OmZ3TNypDLvuOAxdT-12" edge="1">
          <mxGeometry width="50" height="50" relative="1" as="geometry">
            <mxPoint x="965" y="820" as="sourcePoint" />
            <mxPoint x="964.8000000000002" y="540" as="targetPoint" />
          </mxGeometry>
        </mxCell>
        <mxCell id="Hd1OmZ3TNypDLvuOAxdT-14" value="Retrive&#xa;Records" style="verticalAlign=bottom;endArrow=block;shadow=0;strokeWidth=1;" parent="1" edge="1">
          <mxGeometry relative="1" as="geometry">
            <mxPoint x="836" y="645.97" as="sourcePoint" />
            <mxPoint x="960" y="645.97" as="targetPoint" />
            <Array as="points" />
          </mxGeometry>
        </mxCell>
        <mxCell id="Hd1OmZ3TNypDLvuOAxdT-15" value="return&#xa;Records" style="verticalAlign=bottom;endArrow=open;dashed=1;endSize=8;exitX=-0.026;exitY=1.002;shadow=0;strokeWidth=1;exitDx=0;exitDy=0;exitPerimeter=0;" parent="1" edge="1">
          <mxGeometry relative="1" as="geometry">
            <mxPoint x="834" y="677.97" as="targetPoint" />
            <mxPoint x="960" y="677.03" as="sourcePoint" />
          </mxGeometry>
        </mxCell>
        <mxCell id="Hd1OmZ3TNypDLvuOAxdT-18" value="return&#xa;Records" style="verticalAlign=bottom;endArrow=open;dashed=1;endSize=8;shadow=0;strokeWidth=1;exitX=0.083;exitY=0.931;exitDx=0;exitDy=0;exitPerimeter=0;" parent="1" edge="1">
          <mxGeometry relative="1" as="geometry">
            <mxPoint x="278" y="730" as="targetPoint" />
            <mxPoint x="348.8299999999999" y="729.6500000000001" as="sourcePoint" />
          </mxGeometry>
        </mxCell>
        <mxCell id="Hd1OmZ3TNypDLvuOAxdT-20" value="" style="ellipse;whiteSpace=wrap;html=1;aspect=fixed;" parent="1" vertex="1">
          <mxGeometry x="264" y="450" width="40" height="40" as="geometry" />
        </mxCell>
        <mxCell id="Hd1OmZ3TNypDLvuOAxdT-21" value="&lt;b&gt;V1&lt;/b&gt;" style="text;html=1;strokeColor=none;fillColor=none;align=center;verticalAlign=middle;whiteSpace=wrap;rounded=0;" parent="1" vertex="1">
          <mxGeometry x="265" y="460" width="40" height="20" as="geometry" />
        </mxCell>
        <mxCell id="Hd1OmZ3TNypDLvuOAxdT-22" value="generateIssue(issueRequest)" style="verticalAlign=bottom;endArrow=block;shadow=0;strokeWidth=1;" parent="1" edge="1">
          <mxGeometry relative="1" as="geometry">
            <mxPoint x="360" y="610" as="sourcePoint" />
            <mxPoint x="560" y="610" as="targetPoint" />
            <Array as="points" />
          </mxGeometry>
        </mxCell>
        <mxCell id="Hd1OmZ3TNypDLvuOAxdT-23" value="post(IssueRequest: string)" style="verticalAlign=bottom;endArrow=block;shadow=0;strokeWidth=1;" parent="1" edge="1">
          <mxGeometry relative="1" as="geometry">
            <mxPoint x="270" y="560" as="sourcePoint" />
            <Array as="points" />
            <mxPoint x="350" y="560" as="targetPoint" />
          </mxGeometry>
        </mxCell>
        <mxCell id="Hd1OmZ3TNypDLvuOAxdT-29" value="return result" style="verticalAlign=bottom;endArrow=open;dashed=1;endSize=8;shadow=0;strokeWidth=1;" parent="1" edge="1">
          <mxGeometry relative="1" as="geometry">
            <mxPoint x="570" y="698" as="targetPoint" />
            <mxPoint x="695" y="698" as="sourcePoint" />
            <Array as="points" />
          </mxGeometry>
        </mxCell>
        <mxCell id="Hd1OmZ3TNypDLvuOAxdT-30" value="return result" style="verticalAlign=bottom;endArrow=open;dashed=1;endSize=8;shadow=0;strokeWidth=1;" parent="1" target="Hd1OmZ3TNypDLvuOAxdT-3" edge="1">
          <mxGeometry relative="1" as="geometry">
            <mxPoint x="425" y="710" as="targetPoint" />
            <mxPoint x="555" y="710" as="sourcePoint" />
            <Array as="points" />
          </mxGeometry>
        </mxCell>
        <mxCell id="nngdtsK9FfbLxZb6S9HF-45" value="View Controller" style="shape=umlLifeline;perimeter=lifelinePerimeter;container=1;collapsible=0;recursiveResize=0;rounded=0;shadow=0;strokeWidth=1;" parent="1" vertex="1">
          <mxGeometry x="120" y="80" width="100" height="510" as="geometry" />
        </mxCell>
        <mxCell id="nngdtsK9FfbLxZb6S9HF-48" value="" style="points=[];perimeter=orthogonalPerimeter;rounded=0;shadow=0;strokeWidth=1;" parent="nngdtsK9FfbLxZb6S9HF-45" vertex="1">
          <mxGeometry x="45" y="290" width="10" height="10" as="geometry" />
        </mxCell>
        <mxCell id="nngdtsK9FfbLxZb6S9HF-46" value="Guest" style="shape=umlActor;verticalLabelPosition=bottom;verticalAlign=top;html=1;outlineConnect=0;" parent="1" vertex="1">
          <mxGeometry x="-150" y="40" width="30" height="60" as="geometry" />
        </mxCell>
        <mxCell id="nngdtsK9FfbLxZb6S9HF-47" value="" style="endArrow=none;dashed=1;html=1;startArrow=none;" parent="1" edge="1">
          <mxGeometry width="50" height="50" relative="1" as="geometry">
            <mxPoint x="-135" y="590" as="sourcePoint" />
            <mxPoint x="-135.19999999999982" y="120" as="targetPoint" />
          </mxGeometry>
        </mxCell>
        <mxCell id="nngdtsK9FfbLxZb6S9HF-49" value="Result&#xa;Displayed" style="verticalAlign=bottom;endArrow=open;dashed=1;endSize=8;shadow=0;strokeWidth=1;" parent="1" source="nngdtsK9FfbLxZb6S9HF-52" edge="1">
          <mxGeometry relative="1" as="geometry">
            <mxPoint x="-135" y="400" as="targetPoint" />
            <mxPoint x="314.7399999999998" y="429.99999999999994" as="sourcePoint" />
          </mxGeometry>
        </mxCell>
        <mxCell id="nngdtsK9FfbLxZb6S9HF-52" value="Detail&#xa;Page View" style="shape=umlLifeline;perimeter=lifelinePerimeter;container=1;collapsible=0;recursiveResize=0;rounded=0;shadow=0;strokeWidth=1;" parent="1" vertex="1">
          <mxGeometry x="-45" y="80" width="100" height="510" as="geometry" />
        </mxCell>
        <mxCell id="nngdtsK9FfbLxZb6S9HF-53" value="" style="points=[];perimeter=orthogonalPerimeter;rounded=0;shadow=0;strokeWidth=1;" parent="nngdtsK9FfbLxZb6S9HF-52" vertex="1">
          <mxGeometry x="45" y="80" width="10" height="240" as="geometry" />
        </mxCell>
        <mxCell id="nngdtsK9FfbLxZb6S9HF-54" value="Specify Issue Request" style="verticalAlign=bottom;startArrow=oval;endArrow=block;startSize=8;shadow=0;strokeWidth=1;" parent="1" edge="1">
          <mxGeometry relative="1" as="geometry">
            <mxPoint x="-135" y="160" as="sourcePoint" />
            <mxPoint x="5" y="160" as="targetPoint" />
          </mxGeometry>
        </mxCell>
        <mxCell id="nngdtsK9FfbLxZb6S9HF-55" value="render(result: bool)" style="verticalAlign=bottom;endArrow=block;shadow=0;strokeWidth=1;entryX=1.1;entryY=0.875;entryDx=0;entryDy=0;entryPerimeter=0;" parent="1" edge="1">
          <mxGeometry x="-0.0373" relative="1" as="geometry">
            <mxPoint x="165" y="379" as="sourcePoint" />
            <mxPoint x="11" y="379" as="targetPoint" />
            <Array as="points" />
            <mxPoint as="offset" />
          </mxGeometry>
        </mxCell>
        <mxCell id="nngdtsK9FfbLxZb6S9HF-61" value="Authentication&#xa;Checker" style="shape=umlLifeline;perimeter=lifelinePerimeter;container=1;collapsible=0;recursiveResize=0;rounded=0;shadow=0;strokeWidth=1;" parent="1" vertex="1">
          <mxGeometry x="410" y="80" width="100" height="380" as="geometry" />
        </mxCell>
        <mxCell id="nngdtsK9FfbLxZb6S9HF-62" value="" style="points=[];perimeter=orthogonalPerimeter;rounded=0;shadow=0;strokeWidth=1;" parent="nngdtsK9FfbLxZb6S9HF-61" vertex="1">
          <mxGeometry x="45" y="90" width="10" height="20" as="geometry" />
        </mxCell>
        <mxCell id="nngdtsK9FfbLxZb6S9HF-63" value="Auth := Authenticate()" style="verticalAlign=bottom;endArrow=block;shadow=0;strokeWidth=1;" parent="1" source="nngdtsK9FfbLxZb6S9HF-4" edge="1">
          <mxGeometry x="-0.0669" relative="1" as="geometry">
            <mxPoint x="360" y="170" as="sourcePoint" />
            <mxPoint x="458" y="170" as="targetPoint" />
            <Array as="points" />
            <mxPoint as="offset" />
          </mxGeometry>
        </mxCell>
        <mxCell id="nngdtsK9FfbLxZb6S9HF-64" value="return Auth" style="verticalAlign=bottom;endArrow=open;dashed=1;endSize=8;shadow=0;strokeWidth=1;exitX=0.083;exitY=0.931;exitDx=0;exitDy=0;exitPerimeter=0;" parent="1" edge="1">
          <mxGeometry relative="1" as="geometry">
            <mxPoint x="355" y="190.35000000000014" as="targetPoint" />
            <mxPoint x="455.8299999999999" y="190.3500000000001" as="sourcePoint" />
          </mxGeometry>
        </mxCell>
        <mxCell id="vH8dHonC1HAW-z_F6h0X-1" value="Service" style="shape=umlLifeline;perimeter=lifelinePerimeter;container=1;collapsible=0;recursiveResize=0;rounded=0;shadow=0;strokeWidth=1;" parent="1" vertex="1">
          <mxGeometry x="660" y="80" width="100" height="380" as="geometry" />
        </mxCell>
        <mxCell id="vH8dHonC1HAW-z_F6h0X-2" value="" style="points=[];perimeter=orthogonalPerimeter;rounded=0;shadow=0;strokeWidth=1;" parent="vH8dHonC1HAW-z_F6h0X-1" vertex="1">
          <mxGeometry x="45" y="220" width="10" height="90" as="geometry" />
        </mxCell>
        <mxCell id="vH8dHonC1HAW-z_F6h0X-6" value="Service" style="shape=umlLifeline;perimeter=lifelinePerimeter;container=1;collapsible=0;recursiveResize=0;rounded=0;shadow=0;strokeWidth=1;" parent="1" vertex="1">
          <mxGeometry x="650" y="460" width="100" height="360" as="geometry" />
        </mxCell>
        <mxCell id="vH8dHonC1HAW-z_F6h0X-7" value="" style="points=[];perimeter=orthogonalPerimeter;rounded=0;shadow=0;strokeWidth=1;" parent="vH8dHonC1HAW-z_F6h0X-6" vertex="1">
          <mxGeometry x="45" y="155" width="10" height="90" as="geometry" />
        </mxCell>
        <mxCell id="vH8dHonC1HAW-z_F6h0X-8" value="Â save(issueData)" style="verticalAlign=bottom;endArrow=block;shadow=0;strokeWidth=1;entryX=-0.04;entryY=0.006;entryDx=0;entryDy=0;entryPerimeter=0;exitX=1.5;exitY=0.272;exitDx=0;exitDy=0;exitPerimeter=0;" parent="1" edge="1">
          <mxGeometry relative="1" as="geometry">
            <mxPoint x="706" y="639.48" as="sourcePoint" />
            <mxPoint x="826" y="639.52" as="targetPoint" />
            <Array as="points" />
          </mxGeometry>
        </mxCell>
        <mxCell id="vH8dHonC1HAW-z_F6h0X-9" value="return result" style="verticalAlign=bottom;endArrow=open;dashed=1;endSize=8;shadow=0;strokeWidth=1;entryX=0.54;entryY=0.667;entryDx=0;entryDy=0;entryPerimeter=0;" parent="1" edge="1">
          <mxGeometry relative="1" as="geometry">
            <mxPoint x="704" y="687.1400000000001" as="targetPoint" />
            <mxPoint x="824" y="687" as="sourcePoint" />
            <Array as="points">
              <mxPoint x="780" y="687" />
            </Array>
          </mxGeometry>
        </mxCell>
        <mxCell id="Hd1OmZ3TNypDLvuOAxdT-24" value="saveResult := save(issueData)" style="verticalAlign=bottom;endArrow=block;shadow=0;strokeWidth=1;exitX=1.033;exitY=0.247;exitDx=0;exitDy=0;exitPerimeter=0;" parent="1" source="Hd1OmZ3TNypDLvuOAxdT-6" target="vH8dHonC1HAW-z_F6h0X-7" edge="1">
          <mxGeometry relative="1" as="geometry">
            <mxPoint x="510" y="630" as="sourcePoint" />
            <mxPoint x="634.9999999999999" y="630" as="targetPoint" />
            <Array as="points" />
          </mxGeometry>
        </mxCell>
        <mxCell id="W9WrHlgMQtiDwVu98php-1" value="Authentication&#xa;Checker" style="shape=umlLifeline;perimeter=lifelinePerimeter;container=1;collapsible=0;recursiveResize=0;rounded=0;shadow=0;strokeWidth=1;" parent="1" vertex="1">
          <mxGeometry x="410" y="460" width="100" height="360" as="geometry" />
        </mxCell>
        <mxCell id="W9WrHlgMQtiDwVu98php-2" value="" style="points=[];perimeter=orthogonalPerimeter;rounded=0;shadow=0;strokeWidth=1;" parent="W9WrHlgMQtiDwVu98php-1" vertex="1">
          <mxGeometry x="45" y="105" width="10" height="30" as="geometry" />
        </mxCell>
        <mxCell id="W9WrHlgMQtiDwVu98php-3" value="Auth := Authenticate()" style="verticalAlign=bottom;endArrow=block;shadow=0;strokeWidth=1;" parent="1" edge="1">
          <mxGeometry x="-0.0669" relative="1" as="geometry">
            <mxPoint x="360" y="570" as="sourcePoint" />
            <mxPoint x="460" y="570" as="targetPoint" />
            <Array as="points" />
            <mxPoint as="offset" />
          </mxGeometry>
        </mxCell>
        <mxCell id="W9WrHlgMQtiDwVu98php-4" value="return Auth" style="verticalAlign=bottom;endArrow=open;dashed=1;endSize=8;shadow=0;strokeWidth=1;exitX=0;exitY=0.833;exitDx=0;exitDy=0;exitPerimeter=0;" parent="1" source="W9WrHlgMQtiDwVu98php-2" edge="1">
          <mxGeometry relative="1" as="geometry">
            <mxPoint x="360" y="590.0000000000001" as="targetPoint" />
            <mxPoint x="450" y="590" as="sourcePoint" />
          </mxGeometry>
        </mxCell>
      </root>
    </mxGraphModel>
  </diagram>
</mxfile>
